<svg width="22" height="21" viewBox="0 0 22 21" fill="none" xmlns="http://www.w3.org/2000/svg">
<path d="M19.2507 6H2.75065C2.50754 6 2.27438 6.09219 2.10247 6.25628C1.93056 6.42038 1.83398 6.64294 1.83398 6.875V19.125C1.83398 19.3571 1.93056 19.5796 2.10247 19.7437C2.27438 19.9078 2.50754 20 2.75065 20H19.2507C19.4938 20 19.7269 19.9078 19.8988 19.7437C20.0707 19.5796 20.1673 19.3571 20.1673 19.125V6.875C20.1673 6.64294 20.0707 6.42038 19.8988 6.25628C19.7269 6.09219 19.4938 6 19.2507 6ZM18.334 15.625C17.6046 15.625 16.9052 15.9016 16.3894 16.3938C15.8737 16.8861 15.584 17.5538 15.584 18.25H6.41732C6.41732 17.5538 6.12759 16.8861 5.61186 16.3938C5.09614 15.9016 4.39666 15.625 3.66732 15.625V10.375C4.39666 10.375 5.09614 10.0984 5.61186 9.60616C6.12759 9.11387 6.41732 8.44619 6.41732 7.75H15.584C15.584 8.44619 15.8737 9.11387 16.3894 9.60616C16.9052 10.0984 17.6046 10.375 18.334 10.375V15.625Z" fill="#AF2B30"/>
<path d="M11.0007 9.5C8.97848 9.5 7.33398 11.0697 7.33398 13C7.33398 14.9302 8.97848 16.5 11.0007 16.5C13.0228 16.5 14.6673 14.9302 14.6673 13C14.6673 11.0697 13.0228 9.5 11.0007 9.5ZM11.0007 14.75C9.98957 14.75 9.16732 13.9651 9.16732 13C9.16732 12.0349 9.98957 11.25 11.0007 11.25C12.0117 11.25 12.834 12.0349 12.834 13C12.834 13.9651 12.0117 14.75 11.0007 14.75Z" fill="#AF2B30"/>
</svg>
