<svg width="22" height="21" viewBox="0 0 22 21" fill="none" xmlns="http://www.w3.org/2000/svg">
<path d="M15.7377 7H11.917L12.6559 2.76938C12.6779 2.64394 12.6709 2.51544 12.6356 2.39283C12.6002 2.27021 12.5373 2.15642 12.4512 2.05939C12.3651 1.96236 12.2578 1.88441 12.1369 1.83098C12.016 1.77754 11.8844 1.74991 11.7511 1.75H7.02847C6.81162 1.75006 6.60182 1.8235 6.43633 1.95727C6.27085 2.09104 6.16041 2.27647 6.12463 2.48063L4.59655 11.2306C4.57458 11.356 4.58148 11.4844 4.61678 11.607C4.65208 11.7295 4.71493 11.8433 4.80095 11.9403C4.88697 12.0373 4.9941 12.1153 5.11489 12.1687C5.23568 12.2222 5.36723 12.25 5.50038 12.25H9.16705V19.25L16.5095 8.34838C16.5987 8.21614 16.6488 8.06343 16.6547 7.9063C16.6606 7.74917 16.622 7.59342 16.543 7.45545C16.464 7.31747 16.3476 7.20235 16.2059 7.12221C16.0642 7.04206 15.9024 6.99985 15.7377 7Z" fill="#AF2B30"/>
</svg>
