<svg width="22" height="22" viewBox="0 0 22 22" fill="none" xmlns="http://www.w3.org/2000/svg">
<path d="M16.2495 11.935L12.834 14.6667H8.25065V13.75H11.9769C12.0598 13.75 12.1411 13.7274 12.2123 13.6848C12.2834 13.6422 12.3416 13.5811 12.3807 13.508C12.4199 13.4349 12.4384 13.3526 12.4345 13.2698C12.4305 13.187 12.4042 13.1068 12.3582 13.0377L11.5442 11.8167C11.3772 11.5654 11.1507 11.3593 10.8847 11.2168C10.6187 11.0743 10.3216 10.9998 10.0198 11H2.75065C2.50754 11 2.27438 11.0966 2.10247 11.2685C1.93056 11.4404 1.83398 11.6736 1.83398 11.9167V17.4167C1.83398 17.9029 2.02714 18.3692 2.37096 18.713C2.71477 19.0568 3.18109 19.25 3.66732 19.25H12.5031C12.895 19.2501 13.2825 19.1664 13.6395 19.0045C13.9965 18.8426 14.3147 18.6063 14.5729 18.3113L20.1673 11.9167L18.8363 11.473C18.4009 11.3278 17.936 11.2941 17.4841 11.3748C17.0322 11.4555 16.6078 11.6481 16.2495 11.935ZM17.6538 6.77417C18.0672 6.34792 18.323 5.7585 18.323 5.10767C18.323 4.45683 18.0672 3.86742 17.6538 3.44117C17.4447 3.22298 17.1937 3.04929 16.9159 2.93052C16.638 2.81175 16.339 2.75035 16.0368 2.75C16.0368 2.75 14.8965 2.74725 13.7507 3.92883C12.6048 2.74725 11.4645 2.75 11.4645 2.75C11.1624 2.75038 10.8635 2.81171 10.5856 2.93032C10.3078 3.04892 10.0567 3.22236 9.84748 3.44025C9.43407 3.86742 9.17832 4.45592 9.17832 5.10675C9.17832 5.75758 9.43407 6.34792 9.84748 6.77325L13.7507 11L17.6538 6.77417Z" fill="#AF2B30"/>
</svg>
