<svg width="22" height="22" viewBox="0 0 22 22" fill="none" xmlns="http://www.w3.org/2000/svg">
<path d="M19.8612 11.2536C19.9224 11.0528 19.9747 10.8494 20.0179 10.644C20.0207 10.6284 20.0216 10.6138 20.0252 10.5982C20.0436 10.5083 20.0518 10.4158 20.0665 10.325C20.0894 10.1811 20.1169 10.0381 20.1307 9.89326C20.2397 8.81284 20.1069 7.72167 19.7417 6.69899C19.3766 5.6763 18.7883 4.74776 18.0196 3.98076C17.3392 3.29895 16.5309 2.75824 15.641 2.38967C14.7511 2.0211 13.7972 1.83193 12.834 1.83301V9.16635H5.97457L5.18807 7.33301H1.83398V9.16635H3.9799L5.65557 13.0768C5.06811 13.3189 4.56564 13.7298 4.21173 14.2575C3.85781 14.7852 3.66836 15.406 3.66732 16.0413C3.66732 17.8105 5.10648 19.2497 6.87565 19.2497C8.48807 19.2497 9.81265 18.0498 10.0372 16.4997H11.9641C12.1887 18.0498 13.5132 19.2497 15.1257 19.2497C16.8948 19.2497 18.334 17.8105 18.334 16.0413C18.334 15.4638 18.1681 14.9294 17.9004 14.4601C17.9389 14.4225 17.982 14.3895 18.0205 14.351C18.3505 14.0201 18.6512 13.6553 18.9161 13.2657C19.1801 12.8715 19.4074 12.4535 19.5907 12.0199C19.6054 11.986 19.6146 11.9503 19.6283 11.9163L19.643 11.8778C19.7237 11.6762 19.797 11.4736 19.8584 11.2655L19.8612 11.2536ZM6.87565 17.4163C6.11757 17.4163 5.50065 16.7994 5.50065 16.0413C5.50065 15.2833 6.11757 14.6663 6.87565 14.6663C7.63373 14.6663 8.25065 15.2833 8.25065 16.0413C8.25065 16.7994 7.63373 17.4163 6.87565 17.4163ZM15.1257 17.4163C14.3676 17.4163 13.7507 16.7994 13.7507 16.0413C13.7507 15.2833 14.3676 14.6663 15.1257 14.6663C15.8837 14.6663 16.5007 15.2833 16.5007 16.0413C16.5007 16.7994 15.8837 17.4163 15.1257 17.4163Z" fill="#AF2B30"/>
</svg>
