<svg width="22" height="21" viewBox="0 0 22 21" fill="none" xmlns="http://www.w3.org/2000/svg">
<path d="M9.93732 19.1371L11.0007 19.25C10.7396 17.2557 9.78238 15.4036 8.28348 13.9921C6.78457 12.5807 4.83132 11.6924 2.73873 11.4704L1.83398 11.375L1.85323 11.5264C2.10901 13.4775 3.04573 15.2894 4.51234 16.6702C5.97896 18.0509 7.88999 18.9199 9.93732 19.1371ZM20.1481 11.5264L20.1673 11.375L19.2626 11.4704C14.9542 11.928 11.5378 15.1454 11.0007 19.25L12.064 19.1371C14.1113 18.9199 16.0223 18.0509 17.489 16.6702C18.9556 15.2894 19.8923 13.4775 20.1481 11.5264ZM16.5584 4.8125C16.2545 4.31009 15.754 3.94349 15.1669 3.79335C14.5798 3.6432 13.9543 3.72181 13.428 4.01188C13.3712 4.0425 13.3262 4.08275 13.274 4.11775C13.2786 4.05737 13.2923 3.99875 13.2923 3.9375C13.2923 3.35734 13.0509 2.80094 12.6211 2.3907C12.1913 1.98047 11.6084 1.75 11.0007 1.75C10.3929 1.75 9.80997 1.98047 9.3802 2.3907C8.95043 2.80094 8.70898 3.35734 8.70898 3.9375C8.70898 3.99875 8.72273 4.05737 8.72823 4.11775C8.67598 4.08275 8.63015 4.0425 8.57423 4.01188C8.04816 3.72637 7.42514 3.65108 6.84113 3.80242C6.25711 3.95377 5.75952 4.31948 5.45694 4.81973C5.15436 5.31998 5.07134 5.91417 5.22602 6.47263C5.3807 7.03109 5.76051 7.50848 6.28257 7.80062C6.33848 7.83125 6.39807 7.84963 6.4549 7.875C6.39807 7.90037 6.33848 7.91875 6.28257 7.94938C5.76051 8.24152 5.3807 8.71891 5.22602 9.27737C5.07134 9.83582 5.15436 10.43 5.45694 10.9303C5.75952 11.4305 6.25711 11.7962 6.84113 11.9476C7.42514 12.0989 8.04816 12.0236 8.57423 11.7381C8.63107 11.7075 8.67598 11.6672 8.72823 11.6322C8.72273 11.6926 8.70898 11.7513 8.70898 11.8125C8.70898 12.3927 8.95043 12.9491 9.3802 13.3593C9.80997 13.7695 10.3929 14 11.0007 14C11.6084 14 12.1913 13.7695 12.6211 13.3593C13.0509 12.9491 13.2923 12.3927 13.2923 11.8125C13.2923 11.7513 13.2786 11.6926 13.2731 11.6322C13.3253 11.6672 13.3702 11.7075 13.4271 11.7381C13.9531 12.0236 14.5762 12.0989 15.1602 11.9476C15.7442 11.7962 16.2418 11.4305 16.5444 10.9303C16.8469 10.43 16.93 9.83582 16.7753 9.27737C16.6206 8.71891 16.2408 8.24152 15.7187 7.94938C15.6628 7.91875 15.6032 7.90037 15.5464 7.875C15.6042 7.84963 15.6628 7.83125 15.7187 7.80062C15.9794 7.65706 16.2079 7.46588 16.3912 7.23802C16.5745 7.01015 16.709 6.75005 16.7869 6.47257C16.8649 6.19509 16.8849 5.90567 16.8457 5.62084C16.8064 5.336 16.7088 5.06133 16.5584 4.8125ZM11.0007 10.5C10.2713 10.5 9.57183 10.2234 9.05611 9.73116C8.54038 9.23887 8.25065 8.57119 8.25065 7.875C8.25065 7.17881 8.54038 6.51113 9.05611 6.01884C9.57183 5.52656 10.2713 5.25 11.0007 5.25C11.73 5.25 12.4295 5.52656 12.9452 6.01884C13.4609 6.51113 13.7507 7.17881 13.7507 7.875C13.7507 8.57119 13.4609 9.23887 12.9452 9.73116C12.4295 10.2234 11.73 10.5 11.0007 10.5Z" fill="#AF2B30"/>
</svg>
